PathFileType	4	(X/Y/Z)	C:\Users\°ÂÌØÂü\Desktop\20210112\bx_n_5_502-Unnamed.trc
DataRate	CameraRate	NumFrames	NumMarkers	Units	OrigDataRate	OrigDataStartFrame	OrigNumFrames
50.00	50.00	       5	0	mm	50.00	1	       489
Frame#	Time	
		

1	0.000	-675.69836	-66.15495	1534.90454	-572.27283	-0.14977	1053.80371	-582.36926	248.45743	1063.40125	-666.34698	291.11374	871.51477	-566.73590	2.31239	801.49963	-572.18384	227.01259	790.33228	-677.72357	273.75070	741.69873	-711.37390	253.77757	642.24072				-656.79883	20.38776	517.60535	-716.39502	249.53816	575.91290	-664.69366	208.07938	533.00464				-711.51563	152.85544	216.33163	-767.43658	226.79425	206.20766	-882.55273	296.27115	144.72351	-674.53833	55.56191	156.51822	-675.24518	171.27591	157.51633	-591.58063	217.27710	173.72156	-660.42242	297.57083	158.30324	-624.03717	306.36212	158.97414	-555.35895	255.52452	164.33752	-528.02130	304.38251	146.93414	-675.33594	125.11938	1847.37207	-705.11505	296.84259	1526.37622	-758.82245	259.03815	503.04840	-517.20099	-72.99355	143.72585	-547.51532	-26.27423	163.90320	-586.97443	113.87363	1356.13123	-777.19812	98.82324	1050.95715	-793.54169	40.11960	175.03810	-795.69305	177.92072	184.52455	-747.98114	-44.05283	489.40594	-599.04694	28.49960	165.99886	-757.23193	-18.35580	207.79796	-876.09723	-78.65971	141.48227				-702.03729	-30.02449	568.06885	-605.99438	-71.35918	159.03871	-648.24182	-65.48021	163.50711	-662.10626	-57.27676	755.34760	-683.69250	77.86406	571.84412	-678.94830	146.77710	576.11047	-718.78607	72.21507	215.10925	-638.20239	-67.73441	870.72906	-691.51721	-32.21441	615.28632	
2	0.020	-675.85144	-65.94403	1534.99561	-572.38776	-0.05826	1054.00122	-582.87866	248.14397	1063.21960	-666.26447	291.01315	871.55884	-566.72223	2.17116	801.60718	-572.01886	226.96733	790.74213	-678.00372	274.04807	741.68262	-711.29480	253.78860	642.23193				-656.79883	20.38776	517.60535	-716.33929	249.34900	575.85052	-664.43005	208.13646	533.18146				-712.60541	153.35793	216.28465	-767.30109	226.78807	206.01955	-882.48456	296.10822	144.64120	-674.50525	55.22738	156.72195	-675.13116	171.03922	157.75255	-591.66980	217.17299	173.69595	-660.48291	297.86407	158.24377	-623.89801	306.32907	158.99658	-555.29053	255.49448	164.47719	-528.09491	304.64404	146.89276	-675.37506	125.27702	1847.37854	-705.14484	296.84317	1526.34155	-758.81641	258.97751	503.13013	-517.10980	-72.75370	143.69244	-547.41028	-26.35721	164.02348	-587.14014	113.91441	1356.25330	-777.38098	98.74339	1050.97791	-793.64423	39.86050	175.23633	-795.46094	178.14032	184.46198	-747.74475	-43.87823	489.61270	-599.04370	28.65038	166.36288	-757.21606	-18.38062	208.05614	-875.99792	-78.69180	141.55168				-701.95874	-29.87998	568.03711	-606.26117	-71.47936	158.94331	-648.25769	-65.38176	163.58667	-662.13776	-57.28932	755.23767	-683.52917	77.55345	571.82703	-679.01428	146.67465	575.99597	-718.87738	72.52651	215.26569	-638.36456	-67.65166	870.57336	-691.68140	-32.01957	615.13104	
3	0.040	-675.81940	-65.90925	1534.93823	-572.60284	0.03160	1054.11279	-582.95673	248.06387	1063.25757	-666.34631	291.04358	871.59613	-567.00067	2.16151	801.51324	-572.11761	227.02879	790.61963	-677.77649	274.27365	742.22089	-711.28625	253.84840	642.22388				-656.79883	20.38776	517.60535	-716.49707	249.67320	576.14093	-664.64380	208.21063	533.06256				-711.46790	153.00441	216.49654	-767.48395	226.72450	206.02090	-882.50269	296.20471	144.93608	-674.33295	55.36918	156.66577	-675.00232	170.99490	157.68530	-591.66254	217.30923	173.92947	-660.32501	297.55707	158.07318	-623.90125	306.27997	158.98895	-555.29230	255.52066	164.22855	-528.12799	304.54727	146.78020	-675.35382	125.36148	1847.32886	-705.20813	296.81635	1526.25806	-758.82245	259.03815	503.04840	-517.26221	-72.83619	143.63855	-547.41028	-26.35721	164.02348	-587.39600	114.16727	1356.26660	-777.50287	98.74127	1051.06787	-793.63708	39.79865	175.31200	-795.51807	178.02199	184.51025	-747.92120	-43.94704	489.44528	-599.18500	28.55702	166.28207	-757.14685	-18.23208	207.89575	-875.95648	-78.79716	141.44162				-702.09747	-30.00680	568.06122	-605.99548	-71.42523	159.05293	-648.16742	-65.32600	163.48035	-662.23279	-57.37029	755.25592	-683.51801	78.13007	572.25134	-678.94830	146.77710	576.11047	-718.78607	72.21507	215.10925	-638.34546	-67.66582	870.79016	-691.68140	-32.01957	615.13104	
4	0.060	-676.21405	-65.76825	1534.98865	-572.77191	0.11781	1054.03784	-582.96167	248.04518	1063.10156	-666.44592	291.09048	871.42285	-567.09753	2.27059	801.49615	-572.18732	226.88113	790.52008	-677.80164	274.12805	742.03223	-711.33398	253.81415	642.15277				-656.86664	20.14279	517.64343	-716.45917	249.48547	575.79150	-664.48615	208.00893	532.87872				-711.48615	152.96091	216.45047	-767.44086	226.80240	206.02039	-882.36230	296.08911	144.76138	-674.49451	55.28442	156.60770	-674.88043	171.04579	157.78578	-591.66187	217.28773	173.83675	-660.19019	297.33554	158.01460	-623.90125	306.27997	158.98895	-555.21002	255.44925	164.37920	-528.12799	304.54727	146.78020	-675.18628	125.37736	1847.39368	-705.40332	296.81116	1526.16187	-758.88416	258.82739	502.90405	-517.19257	-72.88444	143.77000	-547.51678	-26.36587	163.95190	-587.44830	114.10487	1356.31909	-777.63226	98.71186	1051.01050	-793.50555	39.80387	175.13519	-795.44000	178.00685	184.53198	-747.75494	-43.92570	489.33102	-599.18762	28.61084	166.21272	-757.04150	-18.08414	207.75058	-875.92981	-78.86195	141.39522				-702.10809	-30.03286	568.04962	-605.98822	-71.35345	158.81067	-648.10535	-65.31273	163.59166	-662.23279	-57.37029	755.25592	-683.80585	77.76962	571.79889	-678.94830	146.77710	576.11047	-718.84216	72.10202	215.27846	-638.37677	-67.71254	870.68176	-691.66199	-32.13818	615.04285	
5	0.080	-676.36993	-65.68960	1535.04443	-572.84656	0.17233	1054.16968	-582.96265	248.10236	1063.22998	-666.80774	290.81573	871.28998	-567.08923	2.04494	801.50726	-572.15363	226.95416	790.74872	-677.82312	273.85001	741.68243	-711.30530	253.89633	642.28790				-656.85815	20.11193	517.47125	-716.33929	249.34900	575.85052	-664.43005	208.13646	533.18146				-711.51563	152.85544	216.33163	-767.42999	226.88058	206.10226	-882.43237	296.21704	144.85992	-674.46265	55.34789	156.50072	-675.00232	170.99490	157.68530	-591.72699	217.27989	173.74637	-660.23810	297.49847	158.27338	-623.83453	306.34406	159.00070	-555.31458	255.52281	164.41565	-528.11969	304.63617	146.75458	-674.88824	125.76999	1847.24438	-705.47894	296.88205	1526.08960	-758.75458	258.91882	503.10889	-517.33173	-72.70798	143.68773	-547.41028	-26.35721	164.02348	-587.68768	114.27658	1356.17944	-777.86774	98.72863	1051.03003	-793.64423	39.86050	175.23633	-795.44000	178.00685	184.53198	-747.83759	-43.98079	489.50644	-599.03351	28.63871	166.33447	-757.17456	-18.25682	207.83392	-875.87335	-78.57735	141.34627				-701.93744	-30.05792	568.31952	-606.19537	-71.43146	159.05867	-648.24182	-65.48021	163.50711	-662.28485	-57.35433	755.33685	-683.49823	77.42920	572.01239	-679.28168	146.44077	575.95746	-718.30023	72.71228	215.45126	-638.42206	-67.64554	870.48914	-691.68140	-32.01957	615.13104	
